<svg id="Layer_1" data-name="Layer 1" xmlns="http://www.w3.org/2000/svg" viewBox="0 0 279.307 215.736">
  <title>Artboard 1</title>
  <g id="spacecraft">
    <g id="ship">
      <g>
        <path id="bottomLight" d="M59.258,140.915s26.86,23.718,74.4,23.718,79.427-24.185,79.427-24.185Z" fill="#9fffed"/>
        <ellipse cx="135.72" cy="129.583" rx="86.962" ry="23.766" fill="#3edbcc"/>
        <path d="M217.959,124.292h0a12.439,12.439,0,0,0-2.513-2.655c-17.65-17.793-41.1-24.029-41.1-24.029H96.468c-28.9,8.684-41.645,23.714-43.4,25.924-.02.024-.038.047-.057.072-.107.135-.163.21-.163.212a6.446,6.446,0,0,0-1.5,3.937c0,11.528,37.556,20.873,83.884,20.873s83.888-9.342,83.888-20.872A6.174,6.174,0,0,0,217.959,124.292Z" fill="#5f6798"/>
        <g id="lights">
          <ellipse cx="135.477" cy="126.118" rx="7.387" ry="5.233" fill="#88ffe8"/>
          <path d="M102.76,121.727c.67,2.229-1.851,4.95-5.624,6.079s-7.372.237-8.038-1.992,1.851-4.95,5.624-6.078S102.093,119.5,102.76,121.727Z" fill="#88ffe8"/>
          <path d="M77.711,114.16c.763,1.322-.988,3.762-3.912,5.45s-5.912,1.984-6.675.662.988-3.762,3.911-5.45S76.948,112.837,77.711,114.16Z" fill="#88ffe8"/>
          <path d="M193.008,114.16c-.763,1.322.988,3.762,3.912,5.45s5.912,1.984,6.675.662-.988-3.762-3.911-5.45S193.772,112.837,193.008,114.16Z" fill="#88ffe8"/>
          <path d="M168.107,121.727c-.67,2.229,1.851,4.95,5.624,6.079s7.372.237,8.038-1.992-1.852-4.95-5.624-6.078S168.774,119.5,168.107,121.727Z" fill="#88ffe8"/>
          <path d="M65.225,112.537a8.75,8.75,0,0,1,3.93-4.256,8.883,8.883,0,0,1,5.04-1.394Z" fill="#88ffe8"/>
          <path d="M205.565,113.156a8.749,8.749,0,0,0-3.942-4.244,8.915,8.915,0,0,0-5.044-1.379Z" fill="#88ffe8"/>
        </g>
      </g>
      <ellipse cx="135.72" cy="97.607" rx="38.939" ry="7.604" fill="#cf7ddb"/>
      <path d="M171.559,98.247a1.173,1.173,0,0,0,.659-1.27c-2.827-15.107-18.084-26.65-36.495-26.65S102.038,81.881,99.223,97a1.167,1.167,0,0,0,.537,1.208c2.144,1.312,10.259,4.816,35.963,4.816C158.084,103.022,167.791,100.011,171.559,98.247Z" fill="#3edbcc"/>
      <path d="M143.107,70.8c0,.529-3.307.957-7.387.957s-7.388-.428-7.388-.957,3.308-.957,7.388-.957S143.107,70.275,143.107,70.8Z" fill="#5f6798"/>
      <g>
        <path d="M135.741,70.8H135.7a.908.908,0,0,1-.908-.907h0V51.544h1.858V69.9a.907.907,0,0,1-.907.907Z" fill="#5f6798"/>
        <path d="M138.527,51.545a2.808,2.808,0,1,1-2.808-2.808h0a2.807,2.807,0,0,1,2.807,2.807Z" fill="#5f6798"/>
      </g>
    </g>
  </g>
  <g>
    <path d="M116.915,29.252a13.358,13.358,0,0,1-.909,5.156,9.291,9.291,0,0,1-2.607,3.61,11.168,11.168,0,0,1-4.165,2.135,20.228,20.228,0,0,1-5.58.708,27.735,27.735,0,0,1-12.128-2.5A63.5,63.5,0,0,0,93.791,31.8a8.87,8.87,0,0,1,.283-.85l3.539.873,1.369.307q.732.165,1.463.3t1.392.224a8.3,8.3,0,0,0,1.156.094q.8,0,1.546-.059a4.783,4.783,0,0,0,1.309-.271,2.169,2.169,0,0,0,.909-.613,1.621,1.621,0,0,0,.342-1.086,1.677,1.677,0,0,0-.779-1.392,8.5,8.5,0,0,0-1.946-1.015,24.828,24.828,0,0,0-2.561-.814q-1.392-.364-2.595-.79A13.312,13.312,0,0,1,96.1,25.288a10.553,10.553,0,0,1-2.489-2.135,9.443,9.443,0,0,1-1.64-2.808,9.757,9.757,0,0,1-.59-3.457q0-10.76,12.931-10.759a25.951,25.951,0,0,1,11.42,2.548l-2.6,7.22-3.622-.932q-1.332-.342-2.135-.507t-1.274-.212a9.807,9.807,0,0,0-.991-.048h-.8c-.173,0-.319,0-.437-.011s-.232-.012-.342-.012a3.375,3.375,0,0,0-1.628.318,1.371,1.371,0,0,0-.566,1.31q0,1.486,2.595,2.265,6.395,1.486,9.686,4.318A8.744,8.744,0,0,1,116.915,29.252Z" fill="#5f6798"/>
    <path d="M118.448,6.884h10.9L134.493,27.6l5.144-20.717H151.01L140.628,40.106H128.311Z" fill="#5f6798"/>
    <path d="M176.375,16.039a22.891,22.891,0,0,0-6.606-1.369,6.485,6.485,0,0,0-3.127.732,7.025,7.025,0,0,0-2.277,1.935,8.6,8.6,0,0,0-1.392,2.772,11.376,11.376,0,0,0,.059,6.678,8.837,8.837,0,0,0,1.487,2.807,7.093,7.093,0,0,0,2.3,1.888,6.323,6.323,0,0,0,2.95.7,14.8,14.8,0,0,0,1.934-.141V24.2l8.353-.944v15.1a28.341,28.341,0,0,1-11.609,2.5,15.7,15.7,0,0,1-11.821-5.144,17.545,17.545,0,0,1-4.884-12.5,16.5,16.5,0,0,1,4.978-12.128A15.874,15.874,0,0,1,168.4,6.129a25.471,25.471,0,0,1,11.184,2.406Z" fill="#5f6798"/>
  </g>
  <g>
    <path d="M16.219,177.083H30.9l9.627,33.223H29.149l-1.274-6.371H19.286l-1.369,6.371H7.016Zm10.523,20.906L23.58,183.454l-3.256,14.535Z" fill="#5f6798"/>
    <path d="M42.952,186.451h9.722v4.931a10.143,10.143,0,0,1,3.645-4.247,10.511,10.511,0,0,1,9.474-.5,8.659,8.659,0,0,1,3.1,2.537,11.521,11.521,0,0,1,1.911,3.94,18.822,18.822,0,0,1,.649,5.109v12.081H61.31V197.234a8.092,8.092,0,0,0-.177-1.746,3.981,3.981,0,0,0-.567-1.381,2.733,2.733,0,0,0-.979-.9,2.986,2.986,0,0,0-1.439-.319,3.738,3.738,0,0,0-1.911.507,6.168,6.168,0,0,0-1.522,1.239,7.2,7.2,0,0,0-1.05,1.522,5.623,5.623,0,0,0-.519,1.357v12.789H42.952Z" fill="#5f6798"/>
    <path d="M75.892,178.074a4.219,4.219,0,0,1,.46-1.958,5.051,5.051,0,0,1,1.215-1.546,5.481,5.481,0,0,1,1.746-1,6.059,6.059,0,0,1,2.053-.354,5.532,5.532,0,0,1,2.23.437,5.6,5.6,0,0,1,1.71,1.133,5.136,5.136,0,0,1,1.1,1.557,4.169,4.169,0,0,1,.39,1.734,4.367,4.367,0,0,1-.449,1.982,4.911,4.911,0,0,1-1.2,1.546,5.7,5.7,0,0,1-1.734,1.014,5.782,5.782,0,0,1-2.041.366,6.068,6.068,0,0,1-2.159-.378,5.258,5.258,0,0,1-1.735-1.05A5.092,5.092,0,0,1,76.316,180,4.388,4.388,0,0,1,75.892,178.074Zm15.1,30.957a12.4,12.4,0,0,1-6.324,1.652A9.247,9.247,0,0,1,81.012,210a7.333,7.333,0,0,1-2.7-1.947A8.481,8.481,0,0,1,76.647,205a13.19,13.19,0,0,1-.567-3.988V186.1H86.321v14.44a2.272,2.272,0,0,0,.613,1.734,2.178,2.178,0,0,0,1.558.578,4.145,4.145,0,0,0,1.982-.566Z" fill="#5f6798"/>
    <path d="M120.652,191.76a8.489,8.489,0,0,1,3.186-4.507,9.826,9.826,0,0,1,5.686-1.51,7.464,7.464,0,0,1,3.657.92,9,9,0,0,1,2.9,2.572,12.582,12.582,0,0,1,1.911,3.94,17.587,17.587,0,0,1,.684,5.05v12.081H128.486V198.225a7.451,7.451,0,0,0-.224-1.876,4.917,4.917,0,0,0-.649-1.5,3.1,3.1,0,0,0-1.038-.991,2.734,2.734,0,0,0-1.392-.354,3.206,3.206,0,0,0-1.746.46,4.016,4.016,0,0,0-1.2,1.156,5.05,5.05,0,0,0-.7,1.534,6.1,6.1,0,0,0-.224,1.569v12.081h-10.1V198.225a7.363,7.363,0,0,0-.224-1.853,4.754,4.754,0,0,0-.661-1.5,3.265,3.265,0,0,0-1.073-1,2.849,2.849,0,0,0-1.44-.365,3.411,3.411,0,0,0-1.569.354,3.553,3.553,0,0,0-1.191.979,4.633,4.633,0,0,0-.767,1.451,6.06,6.06,0,0,0-.3,1.746v12.27H93.8V186.451h10.193v4.931a9.583,9.583,0,0,1,3.409-4.318,8.8,8.8,0,0,1,4.849-1.321,9.8,9.8,0,0,1,2.6.342,8.038,8.038,0,0,1,2.347,1.073,8.4,8.4,0,0,1,1.983,1.876A10.342,10.342,0,0,1,120.652,191.76Z" fill="#5f6798"/>
    <path d="M161.944,205.822a8.6,8.6,0,0,1-3.067,3.611,8.792,8.792,0,0,1-4.861,1.25,10.959,10.959,0,0,1-4.506-.955,11.966,11.966,0,0,1-3.776-2.643,12.912,12.912,0,0,1-3.563-9.025,12.411,12.411,0,0,1,3.6-8.861,11.853,11.853,0,0,1,3.775-2.548,11.3,11.3,0,0,1,4.471-.908,8.99,8.99,0,0,1,2.372.318,7.656,7.656,0,0,1,2.218,1.015,8.531,8.531,0,0,1,1.911,1.758,9.21,9.21,0,0,1,1.427,2.548v-5.639H172.09v24.563H161.944Zm0-7.786a4.707,4.707,0,0,0-.448-1.793,4.932,4.932,0,0,0-2.548-2.466,4.429,4.429,0,0,0-1.77-.366,4.715,4.715,0,0,0-1.923.39,4.97,4.97,0,0,0-1.534,1.038,4.861,4.861,0,0,0-1.026,1.522,4.793,4.793,0,0,0,.024,3.787,4.8,4.8,0,0,0,1.073,1.522,5.075,5.075,0,0,0,1.546,1,4.71,4.71,0,0,0,1.84.366,4.5,4.5,0,0,0,1.841-.377,4.895,4.895,0,0,0,2.5-2.49,4.845,4.845,0,0,0,.424-1.758Z" fill="#5f6798"/>
    <path d="M194.365,209.031a15.917,15.917,0,0,1-7.268,1.652,9.4,9.4,0,0,1-3.657-.672,7.238,7.238,0,0,1-2.7-1.935,8.5,8.5,0,0,1-1.663-3.044,13.244,13.244,0,0,1-.567-4.023l.048-8.919h-3.068V186.1h3.823l4.483-9.155H188.7V186.1h5.568v5.993H188.7V200.3a2.262,2.262,0,0,0,.825,1.911,3.581,3.581,0,0,0,2.242.637,4.833,4.833,0,0,0,2.218-.566Z" fill="#5f6798"/>
    <path d="M197.715,178.074a4.219,4.219,0,0,1,.46-1.958,5.081,5.081,0,0,1,1.215-1.546,5.5,5.5,0,0,1,1.746-1,6.059,6.059,0,0,1,2.053-.354,5.529,5.529,0,0,1,2.23.437,5.592,5.592,0,0,1,1.711,1.133,5.153,5.153,0,0,1,1.1,1.557,4.183,4.183,0,0,1,.389,1.734,4.367,4.367,0,0,1-.448,1.982,4.925,4.925,0,0,1-1.2,1.546,5.712,5.712,0,0,1-1.735,1.014,5.782,5.782,0,0,1-2.041.366,6.072,6.072,0,0,1-2.159-.378,5.263,5.263,0,0,1-1.734-1.05A5.076,5.076,0,0,1,198.14,180,4.388,4.388,0,0,1,197.715,178.074Zm15.1,30.957a12.389,12.389,0,0,1-6.323,1.652,9.252,9.252,0,0,1-3.658-.684,7.33,7.33,0,0,1-2.7-1.947A8.483,8.483,0,0,1,198.47,205a13.223,13.223,0,0,1-.566-3.988V186.1h10.24v14.44a2.272,2.272,0,0,0,.614,1.734,2.177,2.177,0,0,0,1.557.578,4.142,4.142,0,0,0,1.982-.566Z" fill="#5f6798"/>
    <path d="M214.444,198.178a13.105,13.105,0,0,1,1.263-5.357,11.881,11.881,0,0,1,3.032-3.893,12.894,12.894,0,0,1,4.377-2.383,17.158,17.158,0,0,1,5.3-.8,16.418,16.418,0,0,1,5.616.92,13.31,13.31,0,0,1,4.388,2.56,11.359,11.359,0,0,1,2.855,3.929,12.254,12.254,0,0,1,1.015,5.026,13.051,13.051,0,0,1-.578,4.011,11.371,11.371,0,0,1-1.569,3.173,11.037,11.037,0,0,1-2.336,2.4,13.289,13.289,0,0,1-2.9,1.664,15.82,15.82,0,0,1-3.221.955,18.2,18.2,0,0,1-3.315.307,16.89,16.89,0,0,1-5.675-.908,13.03,13.03,0,0,1-4.4-2.56,11.338,11.338,0,0,1-2.843-3.953A12.594,12.594,0,0,1,214.444,198.178Zm9.439,0a6.3,6.3,0,0,0,.389,2.312,4.961,4.961,0,0,0,1.026,1.652,4.187,4.187,0,0,0,1.463.991,4.482,4.482,0,0,0,1.675.33,4.392,4.392,0,0,0,1.664-.33,4.328,4.328,0,0,0,1.463-.991,4.858,4.858,0,0,0,1.038-1.652,7.068,7.068,0,0,0,0-4.625,4.727,4.727,0,0,0-1.038-1.64,4.416,4.416,0,0,0-3.127-1.309,4.482,4.482,0,0,0-1.675.33,4.25,4.25,0,0,0-1.463.979,4.824,4.824,0,0,0-1.026,1.64A6.3,6.3,0,0,0,223.883,198.178Z" fill="#5f6798"/>
    <path d="M245.921,186.451h9.721v4.931a10.144,10.144,0,0,1,3.646-4.247,10.509,10.509,0,0,1,9.473-.5,8.659,8.659,0,0,1,3.1,2.537,11.485,11.485,0,0,1,1.911,3.94,18.783,18.783,0,0,1,.649,5.109v12.081H264.278V197.234a8.092,8.092,0,0,0-.177-1.746,4,4,0,0,0-.566-1.381,2.741,2.741,0,0,0-.979-.9,2.99,2.99,0,0,0-1.44-.319,3.738,3.738,0,0,0-1.911.507,6.186,6.186,0,0,0-1.522,1.239,7.2,7.2,0,0,0-1.05,1.522,5.708,5.708,0,0,0-.519,1.357v12.789H245.921Z" fill="#5f6798"/>
  </g>
</svg>
